# xmcd CD database file
#
# Track frame offsets:
#	150
#	14895
#	26775
#	41202
#	53497
#	67202
#	84560
#	99317
#	116172
#	131627
#	149335
#	169084
#	184102
#	198870
#	214202
#	227892
#	243232
#	258102
#
# Disc length: 3612 seconds
#
# Revision: 0
# Processed by: cddbd v1.4PL0 Copyright (c) Steve Scherf et al.
# Submitted via: CDex 1.51
#
DISCID=0a0e1a12
DTITLE=FORROZÃO PEGADA QUENTE - VOL. I
DYEAR=2003
DGENRE=Forró
TTITLE0=BODE VÉIO
TTITLE1=MULHER E SELA
TTITLE2=FORRÓ DAS MOÇAS
TTITLE3=AMOR VAGABUNDO
TTITLE4=AMARRADO NELA
TTITLE5=SAUDADE DELA
TTITLE6=PENSE
TTITLE7=DONA DO MEU UNIVERSO
TTITLE8=CRISTAL QUEBRADO
TTITLE9=A PRAIA
TTITLE10=EVIDÊNCIAS
TTITLE11=VOLTE PRA MIM
TTITLE12=TÁ NA CARA
TTITLE13=DIZ QUE FICA COMIGO
TTITLE14=FORRÓ DOS BONEQUEIROS
TTITLE15=DANÇA DO COROCOCÓ
TTITLE16=OU DÁ OU DESCE
TTITLE17=MACHUCANDO SIM
EXTD=YEAR: 2003
EXTT0=
EXTT1=
EXTT2=
EXTT3=
EXTT4=
EXTT5=
EXTT6=
EXTT7=
EXTT8=
EXTT9=
EXTT10=
EXTT11=
EXTT12=
EXTT13=
EXTT14=
EXTT15=
EXTT16=
EXTT17=
PLAYORDER=
